# xmcd
# 
# Track frame offsets:
#     150
#     11670
#     23383
#     35970
#     46863
#     58247
#     72320
#     83376
#     94814
#     108208
#     121633
#     136135
#     149229
#     160869
#     172780
#     183221
#     194254
#     206324
#     218209
#     228354
# 
# Disc length: 3210
# 
# Revision: 10
# Processed by: cddbd v1.5.2PL0 Copyright (c) Steve Scherf et al.
# Submitted via: fre:ac v1.0.17
# 
DISCID=060c8814
DTITLE=Django Reinhardt - Djangology 06
DYEAR=1940
DGENRE=Jazz
TTITLE0=Darktown Strutter's Ball (Brooks)
TTITLE1=Blues Of Yesterday (Ekyan)
TTITLE2=Stockholm (Reinhardt)
TTITLE3=Younger Generation (Coward)
TTITLE4=I'll See You In My Dreams (Jones - Kahn)
TTITLE5=Echoes Of Spain (Reinhardt)
TTITLE6=Naguine (Reinhardt)
TTITLE7=Undecided (Shavers)
TTITLE8=H. C. Q. Strut ( (Reinhardt - Grappelly)
TTITLE9=Don't Worry 'Bout Me (Bloom - Koehler)
TTITLE10=The Man I Love (Gershwin)
TTITLE11=Boogie Woogie - Part 1 (Smith) 
TTITLE12=Boogie Woogie - Part 2 (Smith) 
TTITLE13=Blue Skies (Berlin)
TTITLE14=Stomp (Hampton)
TTITLE15=Rostetta (Hines - Wood)
TTITLE16=Sugar (Pinkard)
TTITLE17=A Pretty Girl Is Like A Melody (Berlin)
TTITLE18=Margie (Davis - Conard - Robinson)
TTITLE19=Tears (Reinhardt - Grappelly)
EXTD=
EXTT0=
EXTT1=
EXTT2=
EXTT3=
EXTT4=
EXTT5=
EXTT6=
EXTT7=
EXTT8=
EXTT9=
EXTT10=
EXTT11=
EXTT12=
EXTT13=
EXTT14=
EXTT15=
EXTT16=
EXTT17=
EXTT18=
EXTT19=
PLAYORDER=
